# Blender 5.1.1
# www.blender.org
mtllib outputWirelessEssentiaInterface.mtl
o Output
v 0.041022 0.137508 -0.510968
v 0.131174 0.047356 -0.510968
v -0.053690 -0.137508 -0.510968
v -0.143842 -0.047356 -0.510968
v 0.041022 -0.137508 -0.510968
v 0.131174 -0.047356 -0.510968
v -0.053690 0.137508 -0.510968
v -0.143842 0.047356 -0.510968
v 0.085491 0.244865 -0.342989
v 0.238531 0.091824 -0.342989
v -0.098158 -0.244865 -0.342989
v -0.251199 -0.091824 -0.342989
v 0.085491 -0.244865 -0.342989
v 0.238531 -0.091824 -0.342989
v -0.098158 0.244865 -0.342989
v -0.251199 0.091824 -0.342989
v 0.264638 -0.102899 -0.317158
v 0.264638 0.102899 -0.317158
v 0.096565 0.270972 -0.317158
v -0.109232 0.270972 -0.317158
v -0.277306 0.102899 -0.317158
v -0.277306 -0.102899 -0.317158
v -0.109232 -0.270972 -0.317158
v 0.096565 -0.270972 -0.317158
v 0.470031 -0.180894 -0.238189
v 0.174560 -0.476365 -0.238189
v -0.187228 -0.476365 -0.238189
v -0.482699 -0.180894 -0.238189
v 0.470031 0.180894 -0.238189
v 0.174560 0.476365 -0.238189
v -0.187228 0.476365 -0.238189
v -0.482699 0.180894 -0.238189
v 0.164560 -0.061185 -0.485827
v 0.164560 0.061185 -0.485827
v 0.054851 0.170894 -0.485827
v -0.067518 0.170894 -0.485827
v -0.177228 0.061185 -0.485827
v -0.177228 -0.061185 -0.485827
v -0.067518 -0.170894 -0.485827
v 0.054851 -0.170894 -0.485827
v -0.053689 -0.047356 -0.510968
v -0.053689 0.047356 -0.510968
v 0.041022 -0.047356 -0.510968
v 0.041022 0.047356 -0.510968
v 0.264638 -0.102899 -0.332084
v 0.254127 -0.098440 -0.342777
v 0.254127 0.098440 -0.342777
v 0.264638 0.102899 -0.332084
v 0.092106 0.260461 -0.342777
v 0.096565 0.270972 -0.332084
v -0.104774 0.260461 -0.342777
v -0.109232 0.270972 -0.332084
v -0.266794 0.098440 -0.342777
v -0.277306 0.102899 -0.332084
v -0.266794 -0.098440 -0.342777
v -0.277306 -0.102899 -0.332084
v -0.104774 -0.260461 -0.342777
v -0.109232 -0.270972 -0.332084
v 0.092106 -0.260461 -0.342777
v 0.096565 -0.270972 -0.332084
v 0.238531 -0.091824 -0.457094
v 0.209798 -0.079923 -0.485827
v 0.209798 0.079923 -0.485827
v 0.238531 0.091824 -0.457094
v 0.073589 0.216132 -0.485827
v 0.085491 0.244865 -0.457094
v -0.086257 0.216132 -0.485827
v -0.098158 0.244865 -0.457094
v -0.222466 0.079923 -0.485827
v -0.251199 0.091824 -0.457094
v -0.222466 -0.079923 -0.485827
v -0.251199 -0.091824 -0.457094
v -0.086257 -0.216132 -0.485827
v -0.098158 -0.244865 -0.457094
v 0.073589 -0.216132 -0.485827
v 0.085491 -0.244865 -0.457094
v 0.231867 -0.056633 -0.422849
v 0.231867 0.056633 -0.422849
v 0.231867 0.056633 -0.377234
v 0.231867 -0.056633 -0.377234
v 0.106109 -0.215084 -0.422849
v 0.208750 -0.112443 -0.422849
v 0.208750 -0.112443 -0.377234
v 0.106109 -0.215084 -0.377234
v 0.208750 0.112443 -0.422849
v 0.106109 0.215084 -0.422849
v 0.106109 0.215084 -0.377234
v 0.208750 0.112443 -0.377234
v 0.050299 0.238201 -0.422849
v -0.062967 0.238201 -0.422849
v -0.062967 0.238201 -0.377234
v 0.050299 0.238201 -0.377234
v -0.118776 0.215084 -0.422849
v -0.221418 0.112443 -0.422849
v -0.221418 0.112443 -0.377234
v -0.118776 0.215084 -0.377234
v -0.244535 0.056633 -0.422849
v -0.244535 -0.056633 -0.422849
v -0.244535 -0.056633 -0.377234
v -0.244535 0.056633 -0.377234
v -0.221418 -0.112443 -0.422849
v -0.118776 -0.215084 -0.422849
v -0.118776 -0.215084 -0.377234
v -0.221418 -0.112443 -0.377234
v -0.062967 -0.238201 -0.422849
v 0.050299 -0.238201 -0.422849
v 0.050299 -0.238201 -0.377234
v -0.062967 -0.238201 -0.377234
v 0.166944 -0.065800 0.011409
v 0.059466 -0.173278 0.011409
v -0.072134 -0.173278 0.011408
v -0.179612 -0.065800 0.011408
v 0.166944 0.065800 0.011409
v 0.059466 0.173278 0.011409
v -0.072134 0.173278 0.011408
v -0.179612 0.065800 0.011408
v 0.241635 -0.094163 -0.097511
v 0.087829 -0.247969 -0.097511
v -0.100497 -0.247969 -0.097511
v -0.100497 0.247969 -0.097511
v -0.254303 -0.094163 -0.097511
v -0.254303 0.094163 -0.097511
v 0.087829 0.247969 -0.097511
v 0.241635 0.094163 -0.097511
v 0.125836 -0.050190 0.041409
v 0.043856 -0.132170 0.041409
v -0.056524 -0.132170 0.041408
v -0.138504 -0.050190 0.041408
v 0.125836 0.050190 0.041409
v 0.043856 0.132170 0.041409
v -0.056524 0.132170 0.041408
v -0.138504 0.050190 0.041408
v -0.452776 0.169531 -0.138086
v -0.482699 0.180894 -0.174393
v -0.175865 0.446442 -0.138086
v -0.187228 0.476365 -0.174393
v 0.163197 0.446442 -0.138086
v 0.174560 0.476365 -0.174393
v 0.440108 0.169531 -0.138086
v 0.470031 0.180894 -0.174392
v -0.452776 -0.169531 -0.138086
v -0.482699 -0.180894 -0.174393
v -0.175865 -0.446442 -0.138086
v -0.187228 -0.476365 -0.174393
v 0.163197 -0.446442 -0.138086
v 0.174560 -0.476365 -0.174393
v 0.470031 -0.180894 -0.174392
v 0.440108 -0.169531 -0.138086
v -0.191780 0.316345 -0.124551
v -0.322679 0.185446 -0.124551
v -0.256618 0.160360 -0.111046
v -0.166694 0.250285 -0.111046
v -0.371457 0.073267 -0.124845
v -0.371457 -0.073267 -0.124845
v -0.302521 -0.047090 -0.110752
v -0.302521 0.047090 -0.110752
v 0.066934 0.365123 -0.124845
v -0.079601 0.365123 -0.124845
v -0.053424 0.296187 -0.110752
v 0.040756 0.296187 -0.110752
v 0.310011 0.185446 -0.124551
v 0.179112 0.316345 -0.124551
v 0.154026 0.250285 -0.111046
v 0.243951 0.160360 -0.111046
v 0.358789 -0.073267 -0.124845
v 0.358789 0.073268 -0.124845
v 0.289854 0.047090 -0.110752
v 0.289853 -0.047090 -0.110752
v -0.322679 -0.185446 -0.124551
v -0.191780 -0.316345 -0.124551
v -0.166694 -0.250285 -0.111046
v -0.256618 -0.160360 -0.111046
v -0.079601 -0.365123 -0.124845
v 0.066934 -0.365123 -0.124845
v 0.040756 -0.296187 -0.110752
v -0.053424 -0.296187 -0.110752
v 0.179112 -0.316345 -0.124551
v 0.310011 -0.185446 -0.124551
v 0.243951 -0.160360 -0.111046
v 0.154026 -0.250285 -0.111046
v 0.109428 -0.043394 0.041409
v 0.109428 0.043394 0.041409
v 0.037060 0.115762 0.041409
v -0.049728 0.115762 0.041408
v -0.122096 0.043394 0.041408
v -0.122096 -0.043394 0.041408
v -0.049728 -0.115762 0.041408
v 0.037060 -0.115762 0.041409
v 0.061734 -0.023638 0.002068
v 0.061734 0.023638 0.002068
v 0.017304 0.068069 0.002068
v -0.029972 0.068069 0.002068
v -0.074403 0.023638 0.002068
v -0.074403 -0.023638 0.002068
v -0.029972 -0.068069 0.002068
v 0.017304 -0.068069 0.002068
vn -0.0000 -0.0000 -1.0000
vn 0.2593 0.2593 -0.9304
vn -0.2593 0.2593 -0.9304
vn -0.2593 -0.2593 -0.9304
vn 0.2593 -0.2593 -0.9304
vn 0.3589 -0.0000 -0.9334
vn -0.0000 0.3589 -0.9334
vn -0.3589 -0.0000 -0.9334
vn -0.0000 -0.3589 -0.9334
vn 0.5877 -0.5877 0.5561
vn 0.6016 -0.0000 -0.7988
vn 0.4254 0.4254 -0.7988
vn -0.0000 0.6016 -0.7988
vn -0.4254 0.4254 -0.7988
vn -0.6016 -0.0000 -0.7988
vn -0.4254 -0.4254 -0.7988
vn -0.0000 -0.6016 -0.7988
vn 0.4254 -0.4254 -0.7988
vn 0.7131 -0.0000 -0.7010
vn 0.5025 0.5025 -0.7035
vn -0.0000 0.7131 -0.7010
vn -0.5025 0.5025 -0.7035
vn -0.7131 -0.0000 -0.7010
vn -0.5025 -0.5025 -0.7035
vn -0.0000 -0.7131 -0.7010
vn 0.5025 -0.5025 -0.7035
vn 0.0095 -0.0095 -0.9999
vn 0.7071 -0.7071 -0.0000
vn 0.0136 -0.0000 -0.9999
vn 1.0000 -0.0000 -0.0000
vn 0.7071 0.7071 -0.0000
vn 0.0095 0.0095 -0.9999
vn -0.0000 0.0136 -0.9999
vn -0.0000 1.0000 -0.0000
vn -0.7071 0.7071 -0.0000
vn -0.0095 0.0095 -0.9999
vn -1.0000 -0.0000 -0.0000
vn -0.0136 -0.0000 -0.9999
vn -0.7071 -0.7071 -0.0000
vn -0.0095 -0.0095 -0.9999
vn -0.0000 -1.0000 -0.0000
vn -0.0000 -0.0136 -0.9999
vn 0.7071 -0.0000 -0.7071
vn 0.5000 0.5000 -0.7071
vn -0.0000 0.7071 -0.7071
vn -0.5000 0.5000 -0.7071
vn -0.7071 -0.0000 -0.7071
vn -0.5000 -0.5000 -0.7071
vn -0.0000 -0.7071 -0.7071
vn 0.5000 -0.5000 -0.7071
vn 0.9816 -0.0000 0.1910
vn 0.9825 -0.1861 -0.0000
vn 0.9816 -0.0000 -0.1910
vn 0.9825 0.1861 -0.0000
vn 0.6948 -0.6948 0.1859
vn 0.5692 -0.8222 -0.0000
vn 0.6948 -0.6948 -0.1859
vn 0.8222 -0.5692 -0.0000
vn 0.6948 0.6948 0.1859
vn 0.8222 0.5692 -0.0000
vn 0.6948 0.6948 -0.1859
vn 0.5692 0.8222 -0.0000
vn -0.0000 0.9816 0.1910
vn 0.1861 0.9825 -0.0000
vn -0.0000 0.9816 -0.1910
vn -0.1861 0.9825 -0.0000
vn -0.6948 0.6948 0.1859
vn -0.5692 0.8222 -0.0000
vn -0.6948 0.6948 -0.1859
vn -0.8222 0.5692 -0.0000
vn -0.9816 -0.0000 0.1910
vn -0.9825 0.1861 -0.0000
vn -0.9816 -0.0000 -0.1910
vn -0.9825 -0.1861 -0.0000
vn -0.6948 -0.6948 0.1859
vn -0.8222 -0.5692 -0.0000
vn -0.6948 -0.6948 -0.1859
vn -0.5692 -0.8222 -0.0000
vn -0.0000 -0.9816 0.1910
vn -0.1861 -0.9825 -0.0000
vn -0.0000 -0.9816 -0.1910
vn 0.1861 -0.9825 -0.0000
vn -0.5877 -0.5877 0.5561
vn -0.0000 0.8247 0.5655
vn 0.8247 -0.0000 0.5655
vn -0.0000 -0.8247 0.5655
vn -0.5877 0.5877 0.5561
vn -0.8247 -0.0000 0.5655
vn 0.5877 0.5877 0.5561
vn -0.0000 -0.5895 0.8078
vn -0.5895 -0.0000 0.8078
vn -0.0000 0.5895 0.8078
vn 0.5895 -0.0000 0.8078
vn 0.4235 -0.4235 0.8008
vn -0.4235 -0.4235 0.8008
vn -0.4235 0.4235 0.8008
vn 0.4235 0.4235 0.8008
vn -0.0000 -0.0000 1.0000
vn 0.5511 -0.5511 0.6266
vn -0.0000 -0.7717 0.6360
vn -0.5511 -0.5511 0.6266
vn -0.7717 -0.0000 0.6360
vn -0.5511 0.5511 0.6266
vn -0.0000 0.7717 0.6360
vn 0.5511 0.5511 0.6266
vn 0.7717 -0.0000 0.6360
vn -0.1450 0.1450 0.9787
vn -0.2003 -0.0000 0.9797
vn -0.0000 0.2003 0.9797
vn 0.1450 0.1450 0.9787
vn 0.2003 -0.0000 0.9797
vn -0.1450 -0.1450 0.9787
vn -0.0000 -0.2003 0.9797
vn 0.1450 -0.1450 0.9787
vn -0.1169 0.1169 0.9862
vn -0.1250 0.1946 0.9729
vn -0.1903 0.1903 0.9631
vn -0.1946 0.1250 0.9729
vn -0.1607 -0.0000 0.9870
vn -0.2184 0.0504 0.9746
vn -0.2648 -0.0000 0.9643
vn -0.2184 -0.0504 0.9746
vn -0.0000 0.1607 0.9870
vn 0.0504 0.2184 0.9746
vn -0.0000 0.2648 0.9643
vn -0.0504 0.2184 0.9746
vn 0.1169 0.1169 0.9862
vn 0.1945 0.1250 0.9729
vn 0.1903 0.1903 0.9631
vn 0.1250 0.1946 0.9729
vn 0.1607 -0.0000 0.9870
vn 0.2184 -0.0504 0.9746
vn 0.2648 -0.0000 0.9643
vn 0.2184 0.0504 0.9746
vn -0.1169 -0.1169 0.9862
vn -0.1946 -0.1250 0.9729
vn -0.1903 -0.1903 0.9631
vn -0.1250 -0.1946 0.9729
vn -0.0000 -0.1607 0.9870
vn -0.0504 -0.2184 0.9746
vn -0.0000 -0.2648 0.9643
vn 0.0504 -0.2184 0.9746
vn 0.1169 -0.1169 0.9862
vn 0.1250 -0.1945 0.9729
vn 0.1903 -0.1903 0.9631
vn 0.1946 -0.1250 0.9729
vn -0.6363 -0.0000 0.7714
vn -0.4499 -0.4499 0.7714
vn -0.0000 -0.6363 0.7714
vn 0.4499 -0.4499 0.7714
vn 0.6363 -0.0000 0.7714
vn 0.4499 0.4499 0.7714
vn -0.0000 0.6363 0.7714
vn -0.4499 0.4499 0.7714
vn 0.1946 0.1250 0.9729
vn 0.1250 0.1945 0.9729
vn 0.1250 -0.1946 0.9729
vn 0.1945 -0.1250 0.9729
vt 0.646989 0.501401
vt 0.517291 0.501401
vt 0.517290 0.631099
vt 0.238035 0.767036
vt 0.136965 0.636607
vt 0.238035 0.684004
vt 0.136965 0.817583
vt 0.444870 0.834836
vt 0.379263 0.790164
vt 0.433237 0.790164
vt 0.576489 0.950959
vt 0.524585 0.831427
vt 0.576489 0.846656
vt 0.524585 0.966189
vt 0.368870 0.501558
vt 0.499363 0.631476
vt 0.368870 0.631476
vt 0.787880 0.501271
vt 0.657961 0.631763
vt 0.657961 0.501271
vt 0.499076 0.501271
vt 0.369157 0.631763
vt 0.369157 0.501271
vt 0.499363 0.501558
vt 0.179299 0.546930
vt 0.008502 0.554217
vt 0.008502 0.546930
vt 0.179299 0.554217
vt 0.660975 0.950959
vt 0.609071 0.831427
vt 0.660975 0.846656
vt 0.389854 0.946261
vt 0.297922 0.998810
vt 0.297922 0.946261
vt 0.389854 0.998810
vt 0.078644 0.998256
vt 0.108308 0.913606
vt 0.108308 0.969390
vt 0.233446 0.884740
vt 0.203782 0.969390
vt 0.203782 0.913606
vt 0.233446 0.998256
vt 0.078644 0.884740
vt 0.367630 0.834836
vt 0.373888 0.664779
vt 0.430935 0.684997
vt 0.381566 0.684997
vt 0.321029 0.717639
vt 0.341246 0.774685
vt 0.321029 0.782362
vt 0.373888 0.835222
vt 0.430935 0.815004
vt 0.438612 0.835222
vt 0.491472 0.782362
vt 0.471254 0.725316
vt 0.491472 0.717639
vt 0.438612 0.664779
vt 0.341246 0.725316
vt 0.381566 0.815004
vt 0.471254 0.774685
vt 0.394624 0.783478
vt 0.372773 0.738375
vt 0.417876 0.716523
vt 0.016652 0.499200
vt 0.183577 0.453802
vt 0.202381 0.499200
vt 0.035456 0.453802
vt 0.178655 0.509896
vt 0.009031 0.553478
vt 0.009031 0.509896
vt 0.281250 0.946432
vt 0.250000 0.858489
vt 0.281250 0.840625
vt 0.054688 0.953125
vt 0.015625 0.968750
vt 0.007812 0.953125
vt 0.178655 0.553478
vt 0.046875 0.968750
vt 0.250000 0.928568
vt 0.096875 0.999219
vt 0.182227 0.969531
vt 0.215625 0.999219
vt 0.093750 0.882812
vt 0.183594 0.914062
vt 0.218750 0.882812
vt 0.233594 0.898828
vt 0.203906 0.957617
vt 0.203906 0.913672
vt 0.130273 0.969531
vt 0.128906 0.914062
vt 0.463184 0.728659
vt 0.463184 0.771342
vt 0.427592 0.806935
vt 0.384908 0.806935
vt 0.349316 0.771342
vt 0.384908 0.693067
vt 0.349316 0.728659
vt 0.427592 0.693067
vt 0.439728 0.738375
vt 0.439728 0.761626
vt 0.417876 0.783478
vt 0.372773 0.761626
vt 0.394624 0.716523
vt 0.787880 0.631763
vt 0.499076 0.631763
vt 0.609071 0.966189
vt 0.233594 0.987305
s 0
usemtl BaseTex
f 2/1/1 44/2/1 1/3/1
f 19/4/2 29/5/2 18/6/2
f 21/4/3 31/5/3 20/6/3
f 23/4/4 28/5/4 22/6/4
f 17/4/5 26/5/5 24/6/5
f 18/4/6 25/5/6 17/6/6
f 20/4/7 30/5/7 19/6/7
f 22/4/8 32/5/8 21/6/8
f 23/6/9 26/7/9 27/5/9
f 118/8/10 109/9/10 110/10/10
f 2/11/11 33/12/11 6/13/11
f 2/13/12 35/14/12 34/12/12
f 7/11/13 35/12/13 1/13/13
f 7/13/14 37/14/14 36/12/14
f 4/11/15 37/12/15 8/13/15
f 3/11/16 38/12/16 4/13/16
f 5/11/17 39/12/17 3/13/17
f 6/11/18 40/12/18 5/13/18
f 42/15/1 4/16/1 8/17/1
f 4/1/1 41/2/1 3/3/1
f 42/18/1 43/19/1 41/20/1
f 7/1/1 42/2/1 8/3/1
f 41/15/1 5/16/1 3/17/1
f 5/1/1 43/2/1 6/3/1
f 44/21/1 6/22/1 43/23/1
f 1/17/1 42/24/1 7/16/1
f 47/25/19 45/26/19 46/27/19
f 49/25/20 48/26/20 47/27/20
f 51/25/21 50/26/21 49/27/21
f 51/27/22 54/28/22 52/26/22
f 55/25/23 54/26/23 53/27/23
f 55/27/24 58/28/24 56/26/24
f 59/25/25 58/26/25 57/27/25
f 46/25/26 60/26/26 59/27/26
f 14/25/27 59/26/27 13/27/27
f 45/25/28 24/26/28 60/27/28
f 10/25/29 46/26/29 14/27/29
f 48/25/30 17/26/30 45/27/30
f 50/25/31 18/26/31 48/27/31
f 10/27/32 49/28/32 47/26/32
f 15/25/33 49/26/33 9/27/33
f 52/25/34 19/26/34 50/27/34
f 54/25/35 20/26/35 52/27/35
f 16/25/36 51/26/36 15/27/36
f 56/25/37 21/26/37 54/27/37
f 12/25/38 53/26/38 16/27/38
f 58/25/39 22/26/39 56/27/39
f 11/25/40 55/26/40 12/27/40
f 60/25/41 23/26/41 58/27/41
f 13/25/42 57/26/42 11/27/42
f 63/11/43 61/12/43 62/13/43
f 65/11/44 64/12/44 63/13/44
f 67/11/45 66/12/45 65/13/45
f 67/13/46 70/14/46 68/12/46
f 71/11/47 70/12/47 69/13/47
f 71/13/48 74/14/48 72/12/48
f 75/11/49 74/12/49 73/13/49
f 62/11/50 76/12/50 75/13/50
f 34/29/1 62/30/1 33/31/1
f 78/32/30 80/33/30 77/34/30
f 33/29/1 75/30/1 40/31/1
f 81/34/28 83/35/28 84/33/28
f 86/32/31 88/33/31 85/34/31
f 35/29/1 63/30/1 34/31/1
f 90/32/34 92/33/34 89/34/34
f 36/29/1 65/30/1 35/31/1
f 94/32/35 96/33/35 93/34/35
f 37/29/1 67/30/1 36/31/1
f 98/32/37 100/33/37 97/34/37
f 38/29/1 69/30/1 37/31/1
f 102/32/39 104/33/39 101/34/39
f 39/29/1 71/30/1 38/31/1
f 106/32/41 108/33/41 105/34/41
f 40/29/1 73/30/1 39/31/1
f 61/36/51 78/37/51 77/38/51
f 64/39/52 79/40/52 78/41/52
f 14/36/53 79/40/53 10/42/53
f 61/43/54 80/38/54 14/36/54
f 76/36/55 82/37/55 81/38/55
f 61/39/56 83/40/56 82/41/56
f 14/42/57 84/38/57 83/40/57
f 13/36/58 81/37/58 84/38/58
f 66/43/59 85/38/59 64/36/59
f 9/42/60 86/41/60 66/39/60
f 9/42/61 88/38/61 87/40/61
f 64/43/62 88/38/62 10/36/62
f 66/36/63 90/37/63 89/38/63
f 68/39/64 91/40/64 90/41/64
f 9/36/65 91/40/65 15/42/65
f 9/36/66 89/37/66 92/38/66
f 68/36/67 94/37/67 93/38/67
f 70/39/68 95/40/68 94/41/68
f 15/36/69 95/40/69 16/42/69
f 68/43/70 96/38/70 15/36/70
f 70/36/71 98/37/71 97/38/71
f 72/39/72 99/40/72 98/41/72
f 16/36/73 99/40/73 12/42/73
f 70/43/74 100/38/74 16/36/74
f 72/36/75 102/37/75 101/38/75
f 74/39/76 103/40/76 102/41/76
f 11/42/77 104/38/77 103/40/77
f 12/36/78 101/37/78 104/38/78
f 76/43/79 105/38/79 74/36/79
f 13/42/80 106/41/80 76/39/80
f 13/42/81 108/38/81 107/40/81
f 74/43/82 108/38/82 11/36/82
f 121/8/83 111/9/83 112/10/83
f 120/44/84 114/10/84 123/8/84
f 117/8/85 113/9/85 109/10/85
f 119/8/86 110/9/86 111/10/86
f 122/44/87 115/10/87 120/8/87
f 121/44/88 116/10/88 122/8/88
f 123/44/89 113/10/89 124/8/89
f 111/45/90 126/46/90 127/47/90
f 112/48/91 132/49/91 116/50/91
f 115/51/92 130/52/92 114/53/92
f 113/54/93 125/55/93 109/56/93
f 110/57/94 125/55/94 126/46/94
f 111/45/95 128/58/95 112/48/95
f 116/50/96 131/59/96 115/51/96
f 114/53/97 129/60/97 113/54/97
f 192/61/98 194/62/98 196/63/98
f 147/64/99 145/65/99 146/66/99
f 144/66/100 145/67/100 143/65/100
f 142/66/101 143/67/101 141/65/101
f 142/64/102 133/65/102 134/66/102
f 134/64/103 135/65/103 136/66/103
f 136/64/104 137/65/104 138/66/104
f 138/64/105 139/65/105 140/66/105
f 140/64/106 148/65/106 147/66/106
f 32/68/35 136/69/35 31/70/35
f 150/71/107 152/72/107 149/73/107
f 28/68/37 134/69/37 32/70/37
f 154/74/108 156/75/108 153/76/108
f 30/70/34 136/77/34 138/69/34
f 158/74/109 160/75/109 157/76/109
f 29/70/31 138/77/31 140/69/31
f 162/71/110 164/72/110 161/73/110
f 29/68/30 147/69/30 25/70/30
f 165/76/111 167/78/111 168/75/111
f 27/68/39 142/69/39 28/70/39
f 169/73/112 171/79/112 172/72/112
f 26/68/41 144/69/41 27/70/41
f 174/74/113 176/75/113 173/76/113
f 25/68/28 146/69/28 26/70/28
f 178/71/114 180/72/114 177/73/114
f 133/80/115 149/81/115 135/82/115
f 122/83/116 150/84/116 133/85/116
f 120/83/117 151/84/117 122/85/117
f 120/86/118 149/87/118 152/88/118
f 141/80/119 153/81/119 133/82/119
f 121/83/120 154/84/120 141/85/120
f 122/83/121 155/84/121 121/85/121
f 122/86/122 153/87/122 156/88/122
f 135/80/123 157/81/123 137/82/123
f 120/83/124 158/84/124 135/85/124
f 123/83/125 159/84/125 120/85/125
f 123/86/126 157/87/126 160/88/126
f 137/80/127 161/81/127 139/82/127
f 123/83/128 162/84/128 137/85/128
f 124/83/129 163/84/129 123/85/129
f 124/86/130 161/87/130 164/88/130
f 148/82/131 166/89/131 165/81/131
f 124/83/132 166/84/132 139/85/132
f 124/85/133 168/90/133 167/84/133
f 117/86/134 165/87/134 168/88/134
f 141/82/135 170/89/135 169/81/135
f 119/83/136 170/84/136 143/85/136
f 121/83/137 171/84/137 119/85/137
f 121/86/138 169/87/138 172/88/138
f 145/80/139 173/81/139 143/82/139
f 118/83/140 174/84/140 145/85/140
f 119/83/141 175/84/141 118/85/141
f 119/86/142 173/87/142 176/88/142
f 148/80/143 177/81/143 145/82/143
f 117/83/144 178/84/144 148/85/144
f 118/83/145 179/84/145 117/85/145
f 118/86/146 177/87/146 180/88/146
f 129/60/98 181/91/98 125/55/98
f 130/52/98 182/92/98 129/60/98
f 131/59/98 183/93/98 130/52/98
f 132/49/98 184/94/98 131/59/98
f 128/58/98 185/95/98 132/49/98
f 128/58/98 187/96/98 186/97/98
f 126/46/98 187/96/98 127/47/98
f 125/55/98 188/98/98 126/46/98
f 182/92/147 189/99/147 181/91/147
f 183/93/148 190/100/148 182/92/148
f 184/94/149 191/101/149 183/93/149
f 185/95/150 192/61/150 184/94/150
f 186/97/151 193/102/151 185/95/151
f 187/96/152 194/62/152 186/97/152
f 188/98/153 195/103/153 187/96/153
f 188/98/154 189/99/154 196/63/154
f 19/4/2 30/7/2 29/5/2
f 21/4/3 32/7/3 31/5/3
f 23/4/4 27/7/4 28/5/4
f 17/4/5 25/7/5 26/5/5
f 18/4/6 29/7/6 25/5/6
f 20/4/7 31/7/7 30/5/7
f 22/4/8 28/7/8 32/5/8
f 23/6/9 24/4/9 26/7/9
f 118/8/10 117/44/10 109/9/10
f 2/11/11 34/14/11 33/12/11
f 2/13/12 1/11/12 35/14/12
f 7/11/13 36/14/13 35/12/13
f 7/13/14 8/11/14 37/14/14
f 4/11/15 38/14/15 37/12/15
f 3/11/16 39/14/16 38/12/16
f 5/11/17 40/14/17 39/12/17
f 6/11/18 33/14/18 40/12/18
f 42/15/1 41/24/1 4/16/1
f 42/18/1 44/104/1 43/19/1
f 41/15/1 43/24/1 5/16/1
f 44/21/1 2/105/1 6/22/1
f 1/17/1 44/15/1 42/24/1
f 47/25/19 48/28/19 45/26/19
f 49/25/20 50/28/20 48/26/20
f 51/25/21 52/28/21 50/26/21
f 51/27/22 53/25/22 54/28/22
f 55/25/23 56/28/23 54/26/23
f 55/27/24 57/25/24 58/28/24
f 59/25/25 60/28/25 58/26/25
f 46/25/26 45/28/26 60/26/26
f 14/25/27 46/28/27 59/26/27
f 45/25/28 17/28/28 24/26/28
f 10/25/29 47/28/29 46/26/29
f 48/25/30 18/28/30 17/26/30
f 50/25/31 19/28/31 18/26/31
f 10/27/32 9/25/32 49/28/32
f 15/25/33 51/28/33 49/26/33
f 52/25/34 20/28/34 19/26/34
f 54/25/35 21/28/35 20/26/35
f 16/25/36 53/28/36 51/26/36
f 56/25/37 22/28/37 21/26/37
f 12/25/38 55/28/38 53/26/38
f 58/25/39 23/28/39 22/26/39
f 11/25/40 57/28/40 55/26/40
f 60/25/41 24/28/41 23/26/41
f 13/25/42 59/28/42 57/26/42
f 63/11/43 64/14/43 61/12/43
f 65/11/44 66/14/44 64/12/44
f 67/11/45 68/14/45 66/12/45
f 67/13/46 69/11/46 70/14/46
f 71/11/47 72/14/47 70/12/47
f 71/13/48 73/11/48 74/14/48
f 75/11/49 76/14/49 74/12/49
f 62/11/50 61/14/50 76/12/50
f 34/29/1 63/106/1 62/30/1
f 78/32/30 79/35/30 80/33/30
f 33/29/1 62/106/1 75/30/1
f 81/34/28 82/32/28 83/35/28
f 86/32/31 87/35/31 88/33/31
f 35/29/1 65/106/1 63/30/1
f 90/32/34 91/35/34 92/33/34
f 36/29/1 67/106/1 65/30/1
f 94/32/35 95/35/35 96/33/35
f 37/29/1 69/106/1 67/30/1
f 98/32/37 99/35/37 100/33/37
f 38/29/1 71/106/1 69/30/1
f 102/32/39 103/35/39 104/33/39
f 39/29/1 73/106/1 71/30/1
f 106/32/41 107/35/41 108/33/41
f 40/29/1 75/106/1 73/30/1
f 61/36/51 64/43/51 78/37/51
f 64/39/52 10/42/52 79/40/52
f 14/36/53 80/38/53 79/40/53
f 61/43/54 77/37/54 80/38/54
f 76/36/55 61/43/55 82/37/55
f 61/39/56 14/42/56 83/40/56
f 14/42/57 13/36/57 84/38/57
f 13/36/58 76/43/58 81/37/58
f 66/43/59 86/37/59 85/38/59
f 9/42/60 87/40/60 86/41/60
f 9/42/61 10/36/61 88/38/61
f 64/43/62 85/37/62 88/38/62
f 66/36/63 68/43/63 90/37/63
f 68/39/64 15/42/64 91/40/64
f 9/36/65 92/38/65 91/40/65
f 9/36/66 66/43/66 89/37/66
f 68/36/67 70/43/67 94/37/67
f 70/39/68 16/42/68 95/40/68
f 15/36/69 96/38/69 95/40/69
f 68/43/70 93/37/70 96/38/70
f 70/36/71 72/43/71 98/37/71
f 72/39/72 12/42/72 99/40/72
f 16/36/73 100/38/73 99/40/73
f 70/43/74 97/37/74 100/38/74
f 72/36/75 74/43/75 102/37/75
f 74/39/76 11/42/76 103/40/76
f 11/42/77 12/36/77 104/38/77
f 12/36/78 72/43/78 101/37/78
f 76/43/79 106/37/79 105/38/79
f 13/42/80 107/40/80 106/41/80
f 13/42/81 11/36/81 108/38/81
f 74/43/82 105/37/82 108/38/82
f 121/8/83 119/44/83 111/9/83
f 120/44/84 115/9/84 114/10/84
f 117/8/85 124/44/85 113/9/85
f 119/8/86 118/44/86 110/9/86
f 122/44/87 116/9/87 115/10/87
f 121/44/88 112/9/88 116/10/88
f 123/44/89 114/9/89 113/10/89
f 111/45/90 110/57/90 126/46/90
f 112/48/91 128/58/91 132/49/91
f 115/51/92 131/59/92 130/52/92
f 113/54/93 129/60/93 125/55/93
f 110/57/94 109/56/94 125/55/94
f 111/45/95 127/47/95 128/58/95
f 116/50/96 132/49/96 131/59/96
f 114/53/97 130/52/97 129/60/97
f 196/63/98 189/99/98 190/100/98
f 190/100/98 191/101/98 192/61/98
f 192/61/98 193/102/98 194/62/98
f 194/62/98 195/103/98 196/63/98
f 196/63/98 190/100/98 192/61/98
f 147/64/99 148/67/99 145/65/99
f 144/66/100 146/64/100 145/67/100
f 142/66/101 144/64/101 143/67/101
f 142/64/102 141/67/102 133/65/102
f 134/64/103 133/67/103 135/65/103
f 136/64/104 135/67/104 137/65/104
f 138/64/105 137/67/105 139/65/105
f 140/64/106 139/67/106 148/65/106
f 32/68/35 134/77/35 136/69/35
f 150/71/107 151/79/107 152/72/107
f 28/68/37 142/77/37 134/69/37
f 154/74/108 155/78/108 156/75/108
f 30/70/34 31/68/34 136/77/34
f 158/74/109 159/78/109 160/75/109
f 29/70/31 30/68/31 138/77/31
f 162/71/110 163/79/110 164/72/110
f 29/68/30 140/77/30 147/69/30
f 165/76/111 166/74/111 167/78/111
f 27/68/39 144/77/39 142/69/39
f 169/73/112 170/71/112 171/79/112
f 26/68/41 146/77/41 144/69/41
f 174/74/113 175/78/113 176/75/113
f 25/68/28 147/77/28 146/69/28
f 178/71/114 179/79/114 180/72/114
f 133/80/115 150/89/115 149/81/115
f 122/83/116 151/90/116 150/84/116
f 120/83/117 152/90/117 151/84/117
f 120/86/118 135/107/118 149/87/118
f 141/80/119 154/89/119 153/81/119
f 121/83/120 155/90/120 154/84/120
f 122/83/121 156/90/121 155/84/121
f 122/86/122 133/107/122 153/87/122
f 135/80/123 158/89/123 157/81/123
f 120/83/124 159/90/124 158/84/124
f 123/83/125 160/90/125 159/84/125
f 123/86/126 137/107/126 157/87/126
f 137/80/127 162/89/127 161/81/127
f 123/83/155 163/90/155 162/84/155
f 124/83/129 164/90/129 163/84/129
f 124/86/156 139/107/156 161/87/156
f 148/82/131 139/80/131 166/89/131
f 124/83/132 167/90/132 166/84/132
f 124/85/133 117/83/133 168/90/133
f 117/86/134 148/107/134 165/87/134
f 141/82/135 143/80/135 170/89/135
f 119/83/136 171/90/136 170/84/136
f 121/83/137 172/90/137 171/84/137
f 121/86/138 141/107/138 169/87/138
f 145/80/139 174/89/139 173/81/139
f 118/83/140 175/90/140 174/84/140
f 119/83/141 176/90/141 175/84/141
f 119/86/142 143/107/142 173/87/142
f 148/80/143 178/89/143 177/81/143
f 117/83/157 179/90/157 178/84/157
f 118/83/145 180/90/145 179/84/145
f 118/86/158 145/107/158 177/87/158
f 129/60/98 182/92/98 181/91/98
f 130/52/98 183/93/98 182/92/98
f 131/59/98 184/94/98 183/93/98
f 132/49/98 185/95/98 184/94/98
f 128/58/98 186/97/98 185/95/98
f 128/58/98 127/47/98 187/96/98
f 126/46/98 188/98/98 187/96/98
f 125/55/98 181/91/98 188/98/98
f 182/92/147 190/100/147 189/99/147
f 183/93/148 191/101/148 190/100/148
f 184/94/149 192/61/149 191/101/149
f 185/95/150 193/102/150 192/61/150
f 186/97/151 194/62/151 193/102/151
f 187/96/152 195/103/152 194/62/152
f 188/98/153 196/63/153 195/103/153
f 188/98/154 181/91/154 189/99/154
