<?xml version="1.0" encoding="UTF-8" standalone="no"?>
<!-- Created with Inkscape (http://www.inkscape.org/) -->

<svg
   width="32"
   height="32"
   viewBox="0 0 8.4666662 8.4666662"
   version="1.1"
   id="svg1"
   inkscape:version="1.3.2 (091e20e, 2023-11-25, custom)"
   sodipodi:docname="spazio.svg"
   inkscape:export-filename="spazio.png"
   inkscape:export-xdpi="96"
   inkscape:export-ydpi="96"
   xmlns:inkscape="http://www.inkscape.org/namespaces/inkscape"
   xmlns:sodipodi="http://sodipodi.sourceforge.net/DTD/sodipodi-0.dtd"
   xmlns="http://www.w3.org/2000/svg"
   xmlns:svg="http://www.w3.org/2000/svg">
  <sodipodi:namedview
     id="namedview1"
     pagecolor="#606060"
     bordercolor="#000000"
     borderopacity="0.25"
     inkscape:showpageshadow="2"
     inkscape:pageopacity="0.0"
     inkscape:pagecheckerboard="0"
     inkscape:deskcolor="#d1d1d1"
     inkscape:document-units="mm"
     inkscape:zoom="13.042088"
     inkscape:cx="22.580741"
     inkscape:cy="24.650962"
     inkscape:window-width="1920"
     inkscape:window-height="1171"
     inkscape:window-x="-9"
     inkscape:window-y="-9"
     inkscape:window-maximized="1"
     inkscape:current-layer="layer1" />
  <defs
     id="defs1">
    <inkscape:path-effect
       effect="powerstroke"
       id="path-effect29"
       is_visible="true"
       lpeversion="1.3"
       scale_width="0.5"
       interpolator_type="CentripetalCatmullRom"
       interpolator_beta="0.2"
       start_linecap_type="zerowidth"
       end_linecap_type="zerowidth"
       offset_points="0.30403727,0.23985605 | 0.5,0.24999949 | 0.70062112,0.23985605"
       linejoin_type="extrp_arc"
       miter_limit="4"
       not_jump="false"
       sort_points="true"
       message="&lt;b&gt;Ctrl + clic&lt;/b&gt; sobre un nodo existente y muévalo" />
    <inkscape:path-effect
       effect="powerstroke"
       id="path-effect27"
       is_visible="true"
       lpeversion="1.3"
       scale_width="0.5"
       interpolator_type="CentripetalCatmullRom"
       interpolator_beta="0.2"
       start_linecap_type="zerowidth"
       end_linecap_type="zerowidth"
       offset_points="0.30403727,0.23985605 | 0.5,0.24999949 | 0.70062112,0.23985605"
       linejoin_type="extrp_arc"
       miter_limit="4"
       not_jump="false"
       sort_points="true"
       message="&lt;b&gt;Ctrl + clic&lt;/b&gt; sobre un nodo existente y muévalo" />
    <inkscape:path-effect
       effect="powerstroke"
       id="path-effect25"
       is_visible="true"
       lpeversion="1.3"
       scale_width="0.5"
       interpolator_type="CentripetalCatmullRom"
       interpolator_beta="0.2"
       start_linecap_type="zerowidth"
       end_linecap_type="zerowidth"
       offset_points="0.30403727,0.23985605 | 0.5,0.24999949 | 0.70062112,0.23985605"
       linejoin_type="extrp_arc"
       miter_limit="4"
       not_jump="false"
       sort_points="true"
       message="&lt;b&gt;Ctrl + clic&lt;/b&gt; sobre un nodo existente y muévalo" />
    <inkscape:path-effect
       effect="powerstroke"
       id="path-effect23"
       is_visible="true"
       lpeversion="1.3"
       scale_width="0.5"
       interpolator_type="CentripetalCatmullRom"
       interpolator_beta="0.2"
       start_linecap_type="zerowidth"
       end_linecap_type="zerowidth"
       offset_points="0.30403727,0.23985605 | 0.5,0.24999949 | 0.70062112,0.23985605"
       linejoin_type="extrp_arc"
       miter_limit="4"
       not_jump="false"
       sort_points="true"
       message="&lt;b&gt;Ctrl + clic&lt;/b&gt; sobre un nodo existente y muévalo" />
    <inkscape:path-effect
       effect="powerstroke"
       id="path-effect21"
       is_visible="true"
       lpeversion="1.3"
       scale_width="0.5"
       interpolator_type="CentripetalCatmullRom"
       interpolator_beta="0.2"
       start_linecap_type="zerowidth"
       end_linecap_type="zerowidth"
       offset_points="0.30403727,0.23985605 | 0.5,0.24999949 | 0.70062112,0.23985605"
       linejoin_type="extrp_arc"
       miter_limit="4"
       not_jump="false"
       sort_points="true"
       message="&lt;b&gt;Ctrl + clic&lt;/b&gt; sobre un nodo existente y muévalo" />
    <inkscape:path-effect
       effect="fill_between_many"
       method="bsplinespiro"
       autoreverse="false"
       close="false"
       join="false"
       linkedpaths="#path13,0,1"
       id="path-effect19" />
    <inkscape:path-effect
       effect="powerstroke"
       id="path-effect12"
       is_visible="true"
       lpeversion="1.3"
       scale_width="0.5"
       interpolator_type="CentripetalCatmullRom"
       interpolator_beta="0.2"
       start_linecap_type="zerowidth"
       end_linecap_type="zerowidth"
       offset_points="0.30403727,0.23985605 | 0.5,0.24999949 | 0.70062112,0.23985605"
       linejoin_type="extrp_arc"
       miter_limit="4"
       not_jump="false"
       sort_points="true"
       message="&lt;b&gt;Ctrl + clic&lt;/b&gt; sobre un nodo existente y muévalo" />
    <inkscape:path-effect
       effect="powerstroke"
       id="path-effect10"
       is_visible="true"
       lpeversion="1.3"
       scale_width="0.5"
       interpolator_type="CentripetalCatmullRom"
       interpolator_beta="0.2"
       start_linecap_type="zerowidth"
       end_linecap_type="zerowidth"
       offset_points="0.30403727,0.23985605 | 0.5,0.24999949 | 0.70062112,0.23985605"
       linejoin_type="extrp_arc"
       miter_limit="4"
       not_jump="false"
       sort_points="true"
       message="&lt;b&gt;Ctrl + clic&lt;/b&gt; sobre un nodo existente y muévalo" />
    <inkscape:path-effect
       effect="powerstroke"
       id="path-effect8"
       is_visible="true"
       lpeversion="1.3"
       scale_width="0.5"
       interpolator_type="CentripetalCatmullRom"
       interpolator_beta="0.2"
       start_linecap_type="zerowidth"
       end_linecap_type="zerowidth"
       offset_points="0.30403727,0.23985605 | 0.5,0.24999949 | 0.70062112,0.23985605"
       linejoin_type="extrp_arc"
       miter_limit="4"
       not_jump="false"
       sort_points="true"
       message="&lt;b&gt;Ctrl + clic&lt;/b&gt; sobre un nodo existente y muévalo" />
    <inkscape:path-effect
       effect="powerstroke"
       id="path-effect6"
       is_visible="true"
       lpeversion="1.3"
       scale_width="0.5"
       interpolator_type="CentripetalCatmullRom"
       interpolator_beta="0.2"
       start_linecap_type="zerowidth"
       end_linecap_type="zerowidth"
       offset_points="0.30403727,0.23985605 | 0.5,0.24999949 | 0.70062112,0.23985605"
       linejoin_type="extrp_arc"
       miter_limit="4"
       not_jump="false"
       sort_points="true"
       message="&lt;b&gt;Ctrl + clic&lt;/b&gt; sobre un nodo existente y muévalo" />
    <inkscape:path-effect
       effect="powerstroke"
       id="path-effect4"
       is_visible="true"
       lpeversion="1.3"
       scale_width="0.5"
       interpolator_type="CentripetalCatmullRom"
       interpolator_beta="0.2"
       start_linecap_type="zerowidth"
       end_linecap_type="zerowidth"
       offset_points="0.30403727,0.23985605 | 0.5,0.24999949 | 0.70062112,0.23985605"
       linejoin_type="extrp_arc"
       miter_limit="4"
       not_jump="false"
       sort_points="true"
       message="&lt;b&gt;Ctrl + clic&lt;/b&gt; sobre un nodo existente y muévalo" />
    <inkscape:path-effect
       effect="powerstroke"
       id="path-effect1"
       is_visible="true"
       lpeversion="1.3"
       scale_width="0.5"
       interpolator_type="CentripetalCatmullRom"
       interpolator_beta="0.2"
       start_linecap_type="zerowidth"
       end_linecap_type="zerowidth"
       offset_points="0.30403727,0.23985605 | 0.5,0.24999949 | 0.70062112,0.23985605"
       linejoin_type="extrp_arc"
       miter_limit="4"
       not_jump="false"
       sort_points="true"
       message="&lt;b&gt;Ctrl + clic&lt;/b&gt; sobre un nodo existente y muévalo" />
    <inkscape:path-effect
       effect="fill_between_many"
       method="bsplinespiro"
       autoreverse="false"
       close="false"
       join="false"
       linkedpaths="#path1,0,1"
       id="path-effect2" />
  </defs>
  <g
     inkscape:label="Capa 1"
     inkscape:groupmode="layer"
     id="layer1">
    <g
       id="g18"
       transform="matrix(1.0595667,0,0,1.0595667,-0.18862979,-0.10712233)"
       style="fill:#d6d6d6;fill-opacity:1">
      <path
         inkscape:original-d="M 0,0"
         inkscape:path-effect="#path-effect19"
         d="M 2.3938524,0.43621921 V 7.9727458"
         id="path12"
         style="fill:#d6d6d6;fill-opacity:1"
         inkscape:linked-fill="path12" />
      <path
         style="fill:#d6d6d6;fill-opacity:1;fill-rule:nonzero;stroke:none;stroke-width:0.499999;stroke-miterlimit:6;stroke-opacity:1"
         d="M 2.292418,0.43621921 C 2.27243,0.8181167 2.1914544,2.0471369 2.17249,2.7276042 c -0.015215,0.5459273 -0.00505,0.9816941 -0.00507,1.4768783 -2e-5,0.5010353 -0.010573,0.9579363 0.00507,1.5119864 0.019124,0.6772927 0.09994,1.8802308 0.119928,2.2562769 C 2.312406,7.5966997 2.3932218,6.3937616 2.412346,5.7164689 2.4279903,5.1624188 2.4174377,4.7055178 2.4174177,4.2044825 2.417398,3.7092983 2.4275609,3.2735315 2.412346,2.7276042 2.3933816,2.0471369 2.312406,0.8181167 2.292418,0.43621921 Z"
         id="path13"
         inkscape:path-effect="#path-effect1"
         inkscape:original-d="M 2.292418,0.43621921 V 7.9727458"
         inkscape:linked-fill="path12"
         sodipodi:nodetypes="cc"
         transform="translate(0.10143443)" />
      <path
         style="fill:#d6d6d6;fill-opacity:1;fill-rule:nonzero;stroke:none;stroke-width:0.499999;stroke-miterlimit:6;stroke-opacity:1"
         d="M 2.292418,0.43621921 C 2.27243,0.8181167 2.1914544,2.0471369 2.17249,2.7276042 c -0.015215,0.5459273 -0.00505,0.9816941 -0.00507,1.4768783 -2e-5,0.5010353 -0.010573,0.9579363 0.00507,1.5119864 0.019124,0.6772927 0.09994,1.8802308 0.119928,2.2562769 C 2.312406,7.5966997 2.3932218,6.3937616 2.412346,5.7164689 2.4279903,5.1624188 2.4174377,4.7055178 2.4174177,4.2044825 2.417398,3.7092983 2.4275609,3.2735315 2.412346,2.7276042 2.3933816,2.0471369 2.312406,0.8181167 2.292418,0.43621921 Z"
         id="path14"
         inkscape:path-effect="#path-effect21"
         inkscape:original-d="M 2.292418,0.43621921 V 7.9727458"
         inkscape:linked-fill="path12"
         sodipodi:nodetypes="cc"
         transform="translate(1.9409153,0.02885083)" />
      <path
         style="fill:#d6d6d6;fill-opacity:1;fill-rule:nonzero;stroke:none;stroke-width:0.499999;stroke-miterlimit:6;stroke-opacity:1"
         d="M 2.292418,0.43621921 C 2.27243,0.8181167 2.1914544,2.0471369 2.17249,2.7276042 c -0.015215,0.5459273 -0.00505,0.9816941 -0.00507,1.4768783 -2e-5,0.5010353 -0.010573,0.9579363 0.00507,1.5119864 0.019124,0.6772927 0.09994,1.8802308 0.119928,2.2562769 C 2.312406,7.5966997 2.3932218,6.3937616 2.412346,5.7164689 2.4279903,5.1624188 2.4174377,4.7055178 2.4174177,4.2044825 2.417398,3.7092983 2.4275609,3.2735315 2.412346,2.7276042 2.3933816,2.0471369 2.312406,0.8181167 2.292418,0.43621921 Z"
         id="path15"
         inkscape:path-effect="#path-effect23"
         inkscape:original-d="M 2.292418,0.43621921 V 7.9727458"
         inkscape:linked-fill="path12"
         sodipodi:nodetypes="cc"
         transform="translate(3.7803962,0.02885083)" />
      <path
         style="fill:#d6d6d6;fill-opacity:1;fill-rule:nonzero;stroke:none;stroke-width:0.499999;stroke-miterlimit:6;stroke-opacity:1"
         d="M 2.292418,0.43621921 C 2.27243,0.8181167 2.1914544,2.0471369 2.17249,2.7276042 c -0.015215,0.5459273 -0.00505,0.9816941 -0.00507,1.4768783 -2e-5,0.5010353 -0.010573,0.9579363 0.00507,1.5119864 0.019124,0.6772927 0.09994,1.8802308 0.119928,2.2562769 C 2.312406,7.5966997 2.3932218,6.3937616 2.412346,5.7164689 2.4279903,5.1624188 2.4174377,4.7055178 2.4174177,4.2044825 2.417398,3.7092983 2.4275609,3.2735315 2.412346,2.7276042 2.3933816,2.0471369 2.312406,0.8181167 2.292418,0.43621921 Z"
         id="path16"
         inkscape:path-effect="#path-effect25"
         inkscape:original-d="M 2.292418,0.43621921 V 7.9727458"
         inkscape:linked-fill="path12"
         sodipodi:nodetypes="cc"
         transform="rotate(-90,4.1970415,3.9606243)" />
      <path
         style="fill:#d6d6d6;fill-opacity:1;fill-rule:nonzero;stroke:none;stroke-width:0.499999;stroke-miterlimit:6;stroke-opacity:1"
         d="M 2.292418,0.43621921 C 2.27243,0.8181167 2.1914544,2.0471369 2.17249,2.7276042 c -0.015215,0.5459273 -0.00505,0.9816941 -0.00507,1.4768783 -2e-5,0.5010353 -0.010573,0.9579363 0.00507,1.5119864 0.019124,0.6772927 0.09994,1.8802308 0.119928,2.2562769 C 2.312406,7.5966997 2.3932218,6.3937616 2.412346,5.7164689 2.4279903,5.1624188 2.4174377,4.7055178 2.4174177,4.2044825 2.417398,3.7092983 2.4275609,3.2735315 2.412346,2.7276042 2.3933816,2.0471369 2.312406,0.8181167 2.292418,0.43621921 Z"
         id="path17"
         inkscape:path-effect="#path-effect27"
         inkscape:original-d="M 2.292418,0.43621921 V 7.9727458"
         inkscape:linked-fill="path12"
         sodipodi:nodetypes="cc"
         transform="rotate(-90,3.2773011,3.2484503)" />
      <path
         style="fill:#d6d6d6;fill-opacity:1;fill-rule:nonzero;stroke:none;stroke-width:0.499999;stroke-miterlimit:6;stroke-opacity:1"
         d="M 2.292418,0.43621921 C 2.27243,0.8181167 2.1914544,2.0471369 2.17249,2.7276042 c -0.015215,0.5459273 -0.00505,0.9816941 -0.00507,1.4768783 -2e-5,0.5010353 -0.010573,0.9579363 0.00507,1.5119864 0.019124,0.6772927 0.09994,1.8802308 0.119928,2.2562769 C 2.312406,7.5966997 2.3932218,6.3937616 2.412346,5.7164689 2.4279903,5.1624188 2.4174377,4.7055178 2.4174177,4.2044825 2.417398,3.7092983 2.4275609,3.2735315 2.412346,2.7276042 2.3933816,2.0471369 2.312406,0.8181167 2.292418,0.43621921 Z"
         id="path18"
         inkscape:path-effect="#path-effect29"
         inkscape:original-d="M 2.292418,0.43621921 V 7.9727458"
         inkscape:linked-fill="path12"
         sodipodi:nodetypes="cc"
         transform="rotate(-90,2.5826811,2.3462639)" />
    </g>
    <g
       id="g12"
       transform="matrix(1.0595667,0,0,1.0595667,-0.53563198,-0.36663969)"
       style="fill:#ffffff;fill-opacity:1">
      <path
         inkscape:original-d="M 0,0"
         inkscape:path-effect="#path-effect2"
         d="M 2.3938524,0.43621921 V 7.9727458"
         id="path2"
         style="fill:#ffffff;fill-opacity:1" />
      <path
         style="fill:#ffffff;fill-opacity:1;fill-rule:nonzero;stroke:none;stroke-width:0.499999;stroke-miterlimit:6;stroke-opacity:1"
         d="M 2.292418,0.43621921 C 2.27243,0.8181167 2.1914544,2.0471369 2.17249,2.7276042 c -0.015215,0.5459273 -0.00505,0.9816941 -0.00507,1.4768783 -2e-5,0.5010353 -0.010573,0.9579363 0.00507,1.5119864 0.019124,0.6772927 0.09994,1.8802308 0.119928,2.2562769 C 2.312406,7.5966997 2.3932218,6.3937616 2.412346,5.7164689 2.4279903,5.1624188 2.4174377,4.7055178 2.4174177,4.2044825 2.417398,3.7092983 2.4275609,3.2735315 2.412346,2.7276042 2.3933816,2.0471369 2.312406,0.8181167 2.292418,0.43621921 Z"
         id="path1"
         inkscape:path-effect="#path-effect1"
         inkscape:original-d="M 2.292418,0.43621921 V 7.9727458"
         inkscape:linked-fill="path2"
         sodipodi:nodetypes="cc"
         transform="translate(0.10143443)" />
      <path
         style="fill:#ffffff;fill-opacity:1;fill-rule:nonzero;stroke:none;stroke-width:0.499999;stroke-miterlimit:6;stroke-opacity:1"
         d="M 2.292418,0.43621921 C 2.27243,0.8181167 2.1914544,2.0471369 2.17249,2.7276042 c -0.015215,0.5459273 -0.00505,0.9816941 -0.00507,1.4768783 -2e-5,0.5010353 -0.010573,0.9579363 0.00507,1.5119864 0.019124,0.6772927 0.09994,1.8802308 0.119928,2.2562769 C 2.312406,7.5966997 2.3932218,6.3937616 2.412346,5.7164689 2.4279903,5.1624188 2.4174377,4.7055178 2.4174177,4.2044825 2.417398,3.7092983 2.4275609,3.2735315 2.412346,2.7276042 2.3933816,2.0471369 2.312406,0.8181167 2.292418,0.43621921 Z"
         id="path3"
         inkscape:path-effect="#path-effect4"
         inkscape:original-d="M 2.292418,0.43621921 V 7.9727458"
         inkscape:linked-fill="path2"
         sodipodi:nodetypes="cc"
         transform="translate(1.9409153,0.02885083)" />
      <path
         style="fill:#ffffff;fill-opacity:1;fill-rule:nonzero;stroke:none;stroke-width:0.499999;stroke-miterlimit:6;stroke-opacity:1"
         d="M 2.292418,0.43621921 C 2.27243,0.8181167 2.1914544,2.0471369 2.17249,2.7276042 c -0.015215,0.5459273 -0.00505,0.9816941 -0.00507,1.4768783 -2e-5,0.5010353 -0.010573,0.9579363 0.00507,1.5119864 0.019124,0.6772927 0.09994,1.8802308 0.119928,2.2562769 C 2.312406,7.5966997 2.3932218,6.3937616 2.412346,5.7164689 2.4279903,5.1624188 2.4174377,4.7055178 2.4174177,4.2044825 2.417398,3.7092983 2.4275609,3.2735315 2.412346,2.7276042 2.3933816,2.0471369 2.312406,0.8181167 2.292418,0.43621921 Z"
         id="path4"
         inkscape:path-effect="#path-effect6"
         inkscape:original-d="M 2.292418,0.43621921 V 7.9727458"
         inkscape:linked-fill="path2"
         sodipodi:nodetypes="cc"
         transform="translate(3.7803962,0.02885083)" />
      <path
         style="fill:#ffffff;fill-opacity:1;fill-rule:nonzero;stroke:none;stroke-width:0.499999;stroke-miterlimit:6;stroke-opacity:1"
         d="M 2.292418,0.43621921 C 2.27243,0.8181167 2.1914544,2.0471369 2.17249,2.7276042 c -0.015215,0.5459273 -0.00505,0.9816941 -0.00507,1.4768783 -2e-5,0.5010353 -0.010573,0.9579363 0.00507,1.5119864 0.019124,0.6772927 0.09994,1.8802308 0.119928,2.2562769 C 2.312406,7.5966997 2.3932218,6.3937616 2.412346,5.7164689 2.4279903,5.1624188 2.4174377,4.7055178 2.4174177,4.2044825 2.417398,3.7092983 2.4275609,3.2735315 2.412346,2.7276042 2.3933816,2.0471369 2.312406,0.8181167 2.292418,0.43621921 Z"
         id="path6"
         inkscape:path-effect="#path-effect8"
         inkscape:original-d="M 2.292418,0.43621921 V 7.9727458"
         inkscape:linked-fill="path2"
         sodipodi:nodetypes="cc"
         transform="rotate(-90,4.1970415,3.9606243)" />
      <path
         style="fill:#ffffff;fill-opacity:1;fill-rule:nonzero;stroke:none;stroke-width:0.499999;stroke-miterlimit:6;stroke-opacity:1"
         d="M 2.292418,0.43621921 C 2.27243,0.8181167 2.1914544,2.0471369 2.17249,2.7276042 c -0.015215,0.5459273 -0.00505,0.9816941 -0.00507,1.4768783 -2e-5,0.5010353 -0.010573,0.9579363 0.00507,1.5119864 0.019124,0.6772927 0.09994,1.8802308 0.119928,2.2562769 C 2.312406,7.5966997 2.3932218,6.3937616 2.412346,5.7164689 2.4279903,5.1624188 2.4174377,4.7055178 2.4174177,4.2044825 2.417398,3.7092983 2.4275609,3.2735315 2.412346,2.7276042 2.3933816,2.0471369 2.312406,0.8181167 2.292418,0.43621921 Z"
         id="path8"
         inkscape:path-effect="#path-effect10"
         inkscape:original-d="M 2.292418,0.43621921 V 7.9727458"
         inkscape:linked-fill="path2"
         sodipodi:nodetypes="cc"
         transform="rotate(-90,3.2773011,3.2484503)" />
      <path
         style="fill:#ffffff;fill-opacity:1;fill-rule:nonzero;stroke:none;stroke-width:0.499999;stroke-miterlimit:6;stroke-opacity:1"
         d="M 2.292418,0.43621921 C 2.27243,0.8181167 2.1914544,2.0471369 2.17249,2.7276042 c -0.015215,0.5459273 -0.00505,0.9816941 -0.00507,1.4768783 -2e-5,0.5010353 -0.010573,0.9579363 0.00507,1.5119864 0.019124,0.6772927 0.09994,1.8802308 0.119928,2.2562769 C 2.312406,7.5966997 2.3932218,6.3937616 2.412346,5.7164689 2.4279903,5.1624188 2.4174377,4.7055178 2.4174177,4.2044825 2.417398,3.7092983 2.4275609,3.2735315 2.412346,2.7276042 2.3933816,2.0471369 2.312406,0.8181167 2.292418,0.43621921 Z"
         id="path10"
         inkscape:path-effect="#path-effect12"
         inkscape:original-d="M 2.292418,0.43621921 V 7.9727458"
         inkscape:linked-fill="path2"
         sodipodi:nodetypes="cc"
         transform="rotate(-90,2.5826811,2.3462639)" />
    </g>
  </g>
</svg>
